# xmcd
#
# Track frame offsets:
#	150
#	17597
#	38802
#	56527
#	74948
#	88630
#	120091
#	137087
#	152420
#	176220
#	201360
#	222192
#	230347
#
# Disc length: 3085 seconds
#
# Revision: 2
# Processed by: cddbd v1.5.2PL0 Copyright (c) Steve Scherf et al.
# Submitted via: EasyCDDAExtractor 11.0.2.1
#
DISCID=b20c0b0d
DTITLE=Las Blacanblus - Rituales
DYEAR=1900
DGENRE=
TTITLE0=Blues Postnuclear
TTITLE1=Bendición
TTITLE2=Hartas
TTITLE3=Maxi
TTITLE4=La Pasión Según Tchang-Dong
TTITLE5=Magia Discreta
TTITLE6=It's Tight Like That
TTITLE7=Resuélvelo
TTITLE8=Más Mala Que La Peste
TTITLE9=Dos Vasos Más
TTITLE10=Chau Valentino
TTITLE11=Steal Away Home To Jesus
TTITLE12=Bonus Track
EXTD=Subido por Exequiel Frontera 9/97
EXTT0=
EXTT1=
EXTT2=
EXTT3=
EXTT4=
EXTT5=
EXTT6=
EXTT7=
EXTT8=
EXTT9=
EXTT10=
EXTT11=
EXTT12=
PLAYORDER=
